<mxfile host="app.diagrams.net" modified="2023-12-26T01:35:51.775Z" agent="Mozilla/5.0 (Windows NT 10.0; Win64; x64) AppleWebKit/537.36 (KHTML, like Gecko) Chrome/120.0.0.0 Safari/537.36" etag="B09km8agBR18BhI2O6yx" version="22.1.11" type="device">
  <diagram name="第 1 页" id="TfXeyEQeBTtfwagal4xP">
    <mxGraphModel dx="1434" dy="746" grid="0" gridSize="10" guides="1" tooltips="1" connect="1" arrows="1" fold="1" page="0" pageScale="1" pageWidth="827" pageHeight="1169" math="0" shadow="0">
      <root>
        <mxCell id="0" />
        <mxCell id="1" parent="0" />
        <mxCell id="qwp5BvmZkaQuKtRZVV__-1" value="&lt;font style=&quot;font-size: 18px;&quot;&gt;&lt;b&gt;Applications&lt;/b&gt;&lt;/font&gt;" style="rounded=0;whiteSpace=wrap;html=1;fillColor=#f8cecc;strokeColor=#b85450;" parent="1" vertex="1">
          <mxGeometry x="227" y="201" width="548" height="67" as="geometry" />
        </mxCell>
        <mxCell id="qwp5BvmZkaQuKtRZVV__-2" value="&lt;b&gt;&lt;font style=&quot;font-size: 14px;&quot;&gt;System Libraries&lt;/font&gt;&lt;/b&gt;" style="rounded=0;whiteSpace=wrap;html=1;fillColor=#f8cecc;strokeColor=#b85450;" parent="1" vertex="1">
          <mxGeometry x="609" y="243" width="166" height="25" as="geometry" />
        </mxCell>
        <mxCell id="qwp5BvmZkaQuKtRZVV__-3" value="&lt;font style=&quot;font-size: 18px;&quot;&gt;&lt;b&gt;System Call Interface&lt;/b&gt;&lt;/font&gt;" style="rounded=0;whiteSpace=wrap;html=1;fillColor=#fff2cc;strokeColor=#d6b656;" parent="1" vertex="1">
          <mxGeometry x="227" y="282" width="550" height="27" as="geometry" />
        </mxCell>
        <mxCell id="qwp5BvmZkaQuKtRZVV__-4" value="&lt;font style=&quot;font-size: 18px;&quot;&gt;&lt;b&gt;VFS&lt;/b&gt;&lt;/font&gt;" style="rounded=0;whiteSpace=wrap;html=1;fillColor=#dae8fc;strokeColor=#6c8ebf;" parent="1" vertex="1">
          <mxGeometry x="227" y="334" width="193" height="37" as="geometry" />
        </mxCell>
        <mxCell id="qwp5BvmZkaQuKtRZVV__-5" value="&lt;font style=&quot;font-size: 18px;&quot;&gt;&lt;b&gt;File Systems&lt;/b&gt;&lt;/font&gt;" style="rounded=0;whiteSpace=wrap;html=1;fillColor=#dae8fc;strokeColor=#6c8ebf;" parent="1" vertex="1">
          <mxGeometry x="227" y="386" width="193" height="37" as="geometry" />
        </mxCell>
        <mxCell id="qwp5BvmZkaQuKtRZVV__-6" value="&lt;font style=&quot;font-size: 18px;&quot;&gt;&lt;b&gt;Valume Manager&lt;/b&gt;&lt;/font&gt;" style="rounded=0;whiteSpace=wrap;html=1;fillColor=#dae8fc;strokeColor=#6c8ebf;" parent="1" vertex="1">
          <mxGeometry x="227" y="438" width="193" height="37" as="geometry" />
        </mxCell>
        <mxCell id="qwp5BvmZkaQuKtRZVV__-7" value="&lt;font style=&quot;font-size: 18px;&quot;&gt;&lt;b&gt;Block Device Int&lt;/b&gt;&lt;/font&gt;" style="rounded=0;whiteSpace=wrap;html=1;fillColor=#dae8fc;strokeColor=#6c8ebf;" parent="1" vertex="1">
          <mxGeometry x="227" y="490" width="193" height="37" as="geometry" />
        </mxCell>
        <mxCell id="qwp5BvmZkaQuKtRZVV__-9" value="&lt;font style=&quot;font-size: 18px;&quot;&gt;&lt;b&gt;Sockets&lt;/b&gt;&lt;/font&gt;" style="rounded=0;whiteSpace=wrap;html=1;fillColor=#d5e8d4;strokeColor=#82b366;" parent="1" vertex="1">
          <mxGeometry x="460" y="329" width="129" height="37" as="geometry" />
        </mxCell>
        <mxCell id="qwp5BvmZkaQuKtRZVV__-10" value="&lt;font style=&quot;font-size: 18px;&quot;&gt;&lt;b&gt;TCP/UDP&lt;/b&gt;&lt;/font&gt;" style="rounded=0;whiteSpace=wrap;html=1;fillColor=#d5e8d4;strokeColor=#82b366;" parent="1" vertex="1">
          <mxGeometry x="460" y="386" width="129" height="37" as="geometry" />
        </mxCell>
        <mxCell id="qwp5BvmZkaQuKtRZVV__-11" value="&lt;font style=&quot;font-size: 18px;&quot;&gt;&lt;b&gt;Scheduler&lt;/b&gt;&lt;/font&gt;" style="rounded=0;whiteSpace=wrap;html=1;fillColor=#ffe6cc;strokeColor=#d79b00;" parent="1" vertex="1">
          <mxGeometry x="633" y="329" width="129" height="37" as="geometry" />
        </mxCell>
        <mxCell id="qwp5BvmZkaQuKtRZVV__-12" value="&lt;font style=&quot;font-size: 18px;&quot;&gt;&lt;b&gt;Ethernet&lt;/b&gt;&lt;/font&gt;" style="rounded=0;whiteSpace=wrap;html=1;fillColor=#d5e8d4;strokeColor=#82b366;" parent="1" vertex="1">
          <mxGeometry x="460" y="490" width="129" height="37" as="geometry" />
        </mxCell>
        <mxCell id="qwp5BvmZkaQuKtRZVV__-14" value="&lt;font style=&quot;font-size: 18px;&quot;&gt;&lt;b&gt;IP&lt;/b&gt;&lt;/font&gt;" style="rounded=0;whiteSpace=wrap;html=1;fillColor=#d5e8d4;strokeColor=#82b366;" parent="1" vertex="1">
          <mxGeometry x="460" y="438" width="129" height="37" as="geometry" />
        </mxCell>
        <mxCell id="qwp5BvmZkaQuKtRZVV__-15" value="&lt;font style=&quot;font-size: 18px;&quot;&gt;&lt;b&gt;Virtual Memory&lt;/b&gt;&lt;/font&gt;" style="rounded=0;whiteSpace=wrap;html=1;fillColor=#ffe6cc;strokeColor=#d79b00;" parent="1" vertex="1">
          <mxGeometry x="633" y="386" width="129" height="37" as="geometry" />
        </mxCell>
        <mxCell id="qwp5BvmZkaQuKtRZVV__-16" value="&lt;font style=&quot;font-size: 18px;&quot;&gt;&lt;b&gt;Clocksource&lt;/b&gt;&lt;/font&gt;" style="rounded=0;whiteSpace=wrap;html=1;fillColor=#ffe6cc;strokeColor=#d79b00;" parent="1" vertex="1">
          <mxGeometry x="633" y="453" width="129" height="37" as="geometry" />
        </mxCell>
        <mxCell id="qwp5BvmZkaQuKtRZVV__-18" value="&lt;font style=&quot;font-size: 18px;&quot;&gt;&lt;b&gt;Device Drivers&lt;/b&gt;&lt;/font&gt;" style="rounded=0;whiteSpace=wrap;html=1;fillColor=#1ba1e2;strokeColor=#006EAF;fontColor=#ffffff;" parent="1" vertex="1">
          <mxGeometry x="227" y="547" width="550" height="27" as="geometry" />
        </mxCell>
        <mxCell id="qwp5BvmZkaQuKtRZVV__-19" value="&lt;font style=&quot;font-size: 18px;&quot;&gt;&lt;b&gt;Firmware&lt;/b&gt;&lt;/font&gt;" style="rounded=0;whiteSpace=wrap;html=1;fillColor=#60a917;strokeColor=#2D7600;fontColor=#ffffff;" parent="1" vertex="1">
          <mxGeometry x="227" y="589" width="550" height="27" as="geometry" />
        </mxCell>
        <mxCell id="qwp5BvmZkaQuKtRZVV__-21" value="" style="endArrow=none;html=1;rounded=0;strokeWidth=2;" parent="1" edge="1">
          <mxGeometry width="50" height="50" relative="1" as="geometry">
            <mxPoint x="783" y="695" as="sourcePoint" />
            <mxPoint x="229" y="699" as="targetPoint" />
          </mxGeometry>
        </mxCell>
        <mxCell id="qwp5BvmZkaQuKtRZVV__-22" value="" style="endArrow=none;html=1;rounded=0;strokeWidth=2;" parent="1" edge="1">
          <mxGeometry width="50" height="50" relative="1" as="geometry">
            <mxPoint x="281" y="730" as="sourcePoint" />
            <mxPoint x="281" y="698" as="targetPoint" />
          </mxGeometry>
        </mxCell>
        <mxCell id="qwp5BvmZkaQuKtRZVV__-23" value="" style="endArrow=none;html=1;rounded=0;strokeWidth=2;" parent="1" edge="1">
          <mxGeometry width="50" height="50" relative="1" as="geometry">
            <mxPoint x="727" y="726" as="sourcePoint" />
            <mxPoint x="727" y="694" as="targetPoint" />
          </mxGeometry>
        </mxCell>
        <mxCell id="qwp5BvmZkaQuKtRZVV__-24" value="&lt;font style=&quot;font-size: 18px;&quot;&gt;&lt;b&gt;Networker Controller&lt;/b&gt;&lt;/font&gt;" style="rounded=0;whiteSpace=wrap;html=1;fillColor=#6d8764;strokeColor=#3A5431;fontColor=#ffffff;" parent="1" vertex="1">
          <mxGeometry x="630" y="726" width="193" height="37" as="geometry" />
        </mxCell>
        <mxCell id="qwp5BvmZkaQuKtRZVV__-25" value="&lt;font style=&quot;font-size: 18px;&quot;&gt;&lt;b&gt;I/O Controller&lt;/b&gt;&lt;/font&gt;" style="rounded=0;whiteSpace=wrap;html=1;fillColor=#647687;strokeColor=#314354;fontColor=#ffffff;" parent="1" vertex="1">
          <mxGeometry x="192" y="729" width="193" height="37" as="geometry" />
        </mxCell>
        <mxCell id="qwp5BvmZkaQuKtRZVV__-26" value="&lt;font style=&quot;font-size: 18px;&quot;&gt;&lt;b&gt;I/O Bridge&lt;/b&gt;&lt;/font&gt;" style="rounded=0;whiteSpace=wrap;html=1;fillColor=#76608a;strokeColor=#432D57;fontColor=#ffffff;" parent="1" vertex="1">
          <mxGeometry x="786" y="676" width="129" height="37" as="geometry" />
        </mxCell>
        <mxCell id="qwp5BvmZkaQuKtRZVV__-28" value="&lt;span style=&quot;font-size: 18px;&quot;&gt;&lt;b&gt;Swap&lt;/b&gt;&lt;/span&gt;" style="rounded=0;whiteSpace=wrap;html=1;fillColor=#647687;strokeColor=#314354;fontColor=#ffffff;" parent="1" vertex="1">
          <mxGeometry x="312" y="800" width="63" height="27" as="geometry" />
        </mxCell>
        <mxCell id="qwp5BvmZkaQuKtRZVV__-29" value="&lt;span style=&quot;font-size: 18px;&quot;&gt;&lt;b&gt;Disk&lt;/b&gt;&lt;/span&gt;" style="rounded=0;whiteSpace=wrap;html=1;fillColor=#647687;strokeColor=#314354;fontColor=#ffffff;" parent="1" vertex="1">
          <mxGeometry x="206" y="800" width="63" height="27" as="geometry" />
        </mxCell>
        <mxCell id="qwp5BvmZkaQuKtRZVV__-35" value="" style="endArrow=none;html=1;rounded=0;strokeWidth=2;entryX=0.25;entryY=1;entryDx=0;entryDy=0;" parent="1" target="qwp5BvmZkaQuKtRZVV__-25" edge="1">
          <mxGeometry width="50" height="50" relative="1" as="geometry">
            <mxPoint x="240" y="802" as="sourcePoint" />
            <mxPoint x="291" y="708" as="targetPoint" />
          </mxGeometry>
        </mxCell>
        <mxCell id="qwp5BvmZkaQuKtRZVV__-36" value="" style="endArrow=none;html=1;rounded=0;strokeWidth=2;entryX=0.25;entryY=1;entryDx=0;entryDy=0;" parent="1" edge="1">
          <mxGeometry width="50" height="50" relative="1" as="geometry">
            <mxPoint x="343" y="802" as="sourcePoint" />
            <mxPoint x="343" y="766" as="targetPoint" />
          </mxGeometry>
        </mxCell>
        <mxCell id="qwp5BvmZkaQuKtRZVV__-37" value="&lt;font style=&quot;font-size: 18px;&quot;&gt;&lt;b&gt;port&lt;/b&gt;&lt;/font&gt;" style="rounded=0;whiteSpace=wrap;html=1;fillColor=#6d8764;strokeColor=#3A5431;fontColor=#ffffff;" parent="1" vertex="1">
          <mxGeometry x="703" y="798" width="52" height="29" as="geometry" />
        </mxCell>
        <mxCell id="qwp5BvmZkaQuKtRZVV__-38" value="" style="endArrow=none;html=1;rounded=0;strokeWidth=2;entryX=0.25;entryY=1;entryDx=0;entryDy=0;" parent="1" edge="1">
          <mxGeometry width="50" height="50" relative="1" as="geometry">
            <mxPoint x="726" y="800" as="sourcePoint" />
            <mxPoint x="726" y="764" as="targetPoint" />
          </mxGeometry>
        </mxCell>
        <mxCell id="qwp5BvmZkaQuKtRZVV__-39" value="&lt;font style=&quot;font-size: 18px;&quot;&gt;&lt;b&gt;GPU&lt;/b&gt;&lt;/font&gt;" style="rounded=0;whiteSpace=wrap;html=1;fillColor=#b0e3e6;strokeColor=#0e8088;" parent="1" vertex="1">
          <mxGeometry x="1123" y="277" width="52" height="29" as="geometry" />
        </mxCell>
        <mxCell id="qwp5BvmZkaQuKtRZVV__-41" value="&lt;font style=&quot;font-size: 18px;&quot;&gt;&lt;b&gt;CPU1&lt;/b&gt;&lt;/font&gt;" style="rounded=0;whiteSpace=wrap;html=1;fillColor=#b0e3e6;strokeColor=#0e8088;" parent="1" vertex="1">
          <mxGeometry x="1123" y="366" width="52" height="29" as="geometry" />
        </mxCell>
        <mxCell id="qwp5BvmZkaQuKtRZVV__-42" value="&lt;font style=&quot;font-size: 18px;&quot;&gt;&lt;b&gt;DRAM&lt;/b&gt;&lt;/font&gt;" style="rounded=0;whiteSpace=wrap;html=1;fillColor=#b0e3e6;strokeColor=#0e8088;" parent="1" vertex="1">
          <mxGeometry x="1123" y="482" width="52" height="29" as="geometry" />
        </mxCell>
        <mxCell id="qwp5BvmZkaQuKtRZVV__-43" value="" style="endArrow=none;html=1;rounded=0;exitX=0.5;exitY=0;exitDx=0;exitDy=0;strokeWidth=1;" parent="1" source="qwp5BvmZkaQuKtRZVV__-26" edge="1">
          <mxGeometry width="50" height="50" relative="1" as="geometry">
            <mxPoint x="749" y="517" as="sourcePoint" />
            <mxPoint x="1120" y="378" as="targetPoint" />
          </mxGeometry>
        </mxCell>
        <mxCell id="qwp5BvmZkaQuKtRZVV__-44" value="" style="endArrow=none;html=1;rounded=0;strokeWidth=1;entryX=0.5;entryY=1;entryDx=0;entryDy=0;" parent="1" target="qwp5BvmZkaQuKtRZVV__-39" edge="1">
          <mxGeometry width="50" height="50" relative="1" as="geometry">
            <mxPoint x="1149" y="363" as="sourcePoint" />
            <mxPoint x="1130" y="388" as="targetPoint" />
          </mxGeometry>
        </mxCell>
        <mxCell id="qwp5BvmZkaQuKtRZVV__-45" value="" style="endArrow=none;html=1;rounded=0;strokeWidth=1;entryX=0.5;entryY=1;entryDx=0;entryDy=0;" parent="1" edge="1">
          <mxGeometry width="50" height="50" relative="1" as="geometry">
            <mxPoint x="1149" y="480" as="sourcePoint" />
            <mxPoint x="1148.5" y="395" as="targetPoint" />
          </mxGeometry>
        </mxCell>
        <mxCell id="qwp5BvmZkaQuKtRZVV__-46" value="&lt;font style=&quot;font-size: 18px;&quot;&gt;&lt;b&gt;Power&lt;br&gt;Supply&lt;/b&gt;&lt;/font&gt;" style="rounded=0;whiteSpace=wrap;html=1;fillColor=#b0e3e6;strokeColor=#0e8088;" parent="1" vertex="1">
          <mxGeometry x="1328" y="670" width="74" height="60" as="geometry" />
        </mxCell>
        <mxCell id="qwp5BvmZkaQuKtRZVV__-47" value="&lt;font style=&quot;font-size: 18px;&quot;&gt;&lt;b&gt;FAN&lt;/b&gt;&lt;/font&gt;" style="rounded=0;whiteSpace=wrap;html=1;fillColor=#b0e3e6;strokeColor=#0e8088;" parent="1" vertex="1">
          <mxGeometry x="1129" y="670" width="52" height="29" as="geometry" />
        </mxCell>
        <mxCell id="qwp5BvmZkaQuKtRZVV__-48" value="" style="endArrow=none;dashed=1;html=1;dashPattern=1 3;strokeWidth=2;rounded=0;entryX=0.193;entryY=0.045;entryDx=0;entryDy=0;entryPerimeter=0;" parent="1" target="qwp5BvmZkaQuKtRZVV__-1" edge="1">
          <mxGeometry width="50" height="50" relative="1" as="geometry">
            <mxPoint x="333" y="152" as="sourcePoint" />
            <mxPoint x="799" y="267" as="targetPoint" />
          </mxGeometry>
        </mxCell>
        <mxCell id="qwp5BvmZkaQuKtRZVV__-49" value="&lt;div style=&quot;text-align: left;&quot;&gt;&lt;span style=&quot;background-color: initial;&quot;&gt;1 应用配置&lt;/span&gt;&lt;/div&gt;2 用户生成内容，用户调用&lt;br&gt;&lt;div style=&quot;text-align: left;&quot;&gt;&lt;span style=&quot;background-color: initial;&quot;&gt;3 mysqld_qslower&lt;/span&gt;&lt;/div&gt;" style="rounded=0;whiteSpace=wrap;html=1;strokeColor=#b46504;dashed=1;fillColor=#fad7ac;" parent="1" vertex="1">
          <mxGeometry x="265" y="89" width="162" height="60" as="geometry" />
        </mxCell>
        <mxCell id="qwp5BvmZkaQuKtRZVV__-50" value="" style="endArrow=none;dashed=1;html=1;dashPattern=1 3;strokeWidth=2;rounded=0;entryX=0.404;entryY=-0.12;entryDx=0;entryDy=0;entryPerimeter=0;" parent="1" target="qwp5BvmZkaQuKtRZVV__-2" edge="1">
          <mxGeometry width="50" height="50" relative="1" as="geometry">
            <mxPoint x="676" y="121" as="sourcePoint" />
            <mxPoint x="343" y="214" as="targetPoint" />
          </mxGeometry>
        </mxCell>
        <mxCell id="qwp5BvmZkaQuKtRZVV__-51" value="&lt;div style=&quot;&quot;&gt;系统库依赖和调用：&lt;/div&gt;&lt;div style=&quot;&quot;&gt;&amp;nbsp; &amp;nbsp; 1 ldd&lt;/div&gt;&lt;div style=&quot;&quot;&gt;&amp;nbsp; &amp;nbsp; 2&amp;nbsp; gethostlatency&lt;/div&gt;&lt;div style=&quot;&quot;&gt;&amp;nbsp; &amp;nbsp; 3 ltrace&lt;/div&gt;" style="rounded=0;whiteSpace=wrap;html=1;strokeColor=#b85450;dashed=1;align=left;fillColor=#f8cecc;" parent="1" vertex="1">
          <mxGeometry x="614" y="50" width="162" height="60" as="geometry" />
        </mxCell>
        <mxCell id="ktx8jTmNa2V_oMFejqoy-1" value="&lt;div style=&quot;&quot;&gt;跟踪系统调用：strace&lt;/div&gt;" style="rounded=0;whiteSpace=wrap;html=1;strokeColor=#d6b656;dashed=1;align=left;fillColor=#fff2cc;" vertex="1" parent="1">
          <mxGeometry x="892" y="141" width="147" height="34" as="geometry" />
        </mxCell>
        <mxCell id="ktx8jTmNa2V_oMFejqoy-2" value="" style="endArrow=none;dashed=1;html=1;dashPattern=1 3;strokeWidth=2;rounded=0;entryX=1;entryY=0.5;entryDx=0;entryDy=0;" edge="1" parent="1" target="qwp5BvmZkaQuKtRZVV__-3">
          <mxGeometry width="50" height="50" relative="1" as="geometry">
            <mxPoint x="932" y="178" as="sourcePoint" />
            <mxPoint x="686" y="250" as="targetPoint" />
          </mxGeometry>
        </mxCell>
        <mxCell id="ktx8jTmNa2V_oMFejqoy-3" value="" style="endArrow=none;dashed=1;html=1;dashPattern=1 3;strokeWidth=2;rounded=0;exitX=0;exitY=0.5;exitDx=0;exitDy=0;" edge="1" parent="1" source="qwp5BvmZkaQuKtRZVV__-4">
          <mxGeometry width="50" height="50" relative="1" as="geometry">
            <mxPoint x="696" y="141" as="sourcePoint" />
            <mxPoint x="152" y="282" as="targetPoint" />
          </mxGeometry>
        </mxCell>
        <mxCell id="ktx8jTmNa2V_oMFejqoy-4" value="&lt;div style=&quot;text-align: left;&quot;&gt;&lt;font style=&quot;font-size: 14px;&quot;&gt;opensnoop&lt;/font&gt;&lt;/div&gt;&lt;div style=&quot;text-align: left;&quot;&gt;&lt;font size=&quot;3&quot;&gt;lsof&lt;/font&gt;&lt;/div&gt;&lt;div style=&quot;text-align: left;&quot;&gt;&lt;font size=&quot;3&quot;&gt;fatrace&lt;/font&gt;&lt;/div&gt;&lt;div style=&quot;text-align: left;&quot;&gt;&lt;font size=&quot;3&quot;&gt;pcstat&lt;/font&gt;&lt;/div&gt;" style="rounded=0;whiteSpace=wrap;html=1;strokeColor=#6c8ebf;dashed=1;fillColor=#dae8fc;" vertex="1" parent="1">
          <mxGeometry x="63" y="190.5" width="99" height="88" as="geometry" />
        </mxCell>
        <mxCell id="ktx8jTmNa2V_oMFejqoy-5" value="" style="endArrow=none;dashed=1;html=1;dashPattern=1 3;strokeWidth=2;rounded=0;" edge="1" parent="1" source="qwp5BvmZkaQuKtRZVV__-9">
          <mxGeometry width="50" height="50" relative="1" as="geometry">
            <mxPoint x="237" y="363" as="sourcePoint" />
            <mxPoint x="882" y="283" as="targetPoint" />
          </mxGeometry>
        </mxCell>
        <mxCell id="ktx8jTmNa2V_oMFejqoy-6" value="ss" style="text;html=1;align=center;verticalAlign=middle;resizable=0;points=[];autosize=1;strokeColor=#82b366;fillColor=#d5e8d4;" vertex="1" parent="1">
          <mxGeometry x="879" y="267" width="30" height="26" as="geometry" />
        </mxCell>
      </root>
    </mxGraphModel>
  </diagram>
</mxfile>
